<svg xmlns="http://www.w3.org/2000/svg" width="297.773" height="297.773" viewBox="0 0 223.33 223.33" class="displayed_equation">
  <defs>
    <clipPath id="svg902120986741tikz_00001a">
      <path d="M 0 0 L 223.328125 0 L 223.328125 223.328125 L 0 223.328125 Z M 0 0" />
    </clipPath>
    <clipPath id="svg902120986741tikz_00001b">
      <path d="M 12 12 L 211 12 L 211 112 L 12 112 Z M 12 12" />
    </clipPath>
    <clipPath id="svg902120986741tikz_00001c">
      <path d="M 210.730469 111.667969 C 210.730469 56.953125 166.378906 12.601563 111.664063 12.601563 C 56.949219 12.601563 12.597656 56.953125 12.597656 111.667969 C 12.597656 166.378906 56.949219 210.734375 111.664063 210.734375 C 166.378906 210.734375 210.730469 166.378906 210.730469 111.667969 Z M 210.730469 111.667969" />
    </clipPath>
    <clipPath id="svg902120986741tikz_00001d">
      <path d="M 12 12 L 211 12 L 211 129 L 12 129 Z M 12 12" />
    </clipPath>
    <clipPath id="svg902120986741tikz_00001e">
      <path d="M 210.730469 111.667969 C 210.730469 56.953125 166.378906 12.601563 111.664063 12.601563 C 56.949219 12.601563 12.597656 56.953125 12.597656 111.667969 C 12.597656 166.378906 56.949219 210.734375 111.664063 210.734375 C 166.378906 210.734375 210.730469 166.378906 210.730469 111.667969 Z M 210.730469 111.667969" />
    </clipPath>
    <clipPath id="svg902120986741tikz_00001f">
      <path d="M 117 44 L 124 44 L 124 52 L 117 52 Z M 117 44" />
    </clipPath>
    <clipPath id="svg902120986741tikz_00001g">
      <path d="M 210.730469 111.667969 C 210.730469 56.953125 166.378906 12.601563 111.664063 12.601563 C 56.949219 12.601563 12.597656 56.953125 12.597656 111.667969 C 12.597656 166.378906 56.949219 210.734375 111.664063 210.734375 C 166.378906 210.734375 210.730469 166.378906 210.730469 111.667969 Z M 210.730469 111.667969" />
    </clipPath>
    <clipPath id="svg902120986741tikz_00001h">
      <path d="M 123 46 L 128 46 L 128 52 L 123 52 Z M 123 46" />
    </clipPath>
    <clipPath id="svg902120986741tikz_00001i">
      <path d="M 210.730469 111.667969 C 210.730469 56.953125 166.378906 12.601563 111.664063 12.601563 C 56.949219 12.601563 12.597656 56.953125 12.597656 111.667969 C 12.597656 166.378906 56.949219 210.734375 111.664063 210.734375 C 166.378906 210.734375 210.730469 166.378906 210.730469 111.667969 Z M 210.730469 111.667969" />
    </clipPath>
    <clipPath id="svg902120986741tikz_00001j">
      <path d="M 127 44 L 133 44 L 133 52 L 127 52 Z M 127 44" />
    </clipPath>
    <clipPath id="svg902120986741tikz_00001k">
      <path d="M 210.730469 111.667969 C 210.730469 56.953125 166.378906 12.601563 111.664063 12.601563 C 56.949219 12.601563 12.597656 56.953125 12.597656 111.667969 C 12.597656 166.378906 56.949219 210.734375 111.664063 210.734375 C 166.378906 210.734375 210.730469 166.378906 210.730469 111.667969 Z M 210.730469 111.667969" />
    </clipPath>
    <clipPath id="svg902120986741tikz_00001l">
      <path d="M 133 46 L 137 46 L 137 52 L 133 52 Z M 133 46" />
    </clipPath>
    <clipPath id="svg902120986741tikz_00001m">
      <path d="M 210.730469 111.667969 C 210.730469 56.953125 166.378906 12.601563 111.664063 12.601563 C 56.949219 12.601563 12.597656 56.953125 12.597656 111.667969 C 12.597656 166.378906 56.949219 210.734375 111.664063 210.734375 C 166.378906 210.734375 210.730469 166.378906 210.730469 111.667969 Z M 210.730469 111.667969" />
    </clipPath>
    <clipPath id="svg902120986741tikz_00001n">
      <path d="M 141 44 L 148 44 L 148 52 L 141 52 Z M 141 44" />
    </clipPath>
    <clipPath id="svg902120986741tikz_00001o">
      <path d="M 210.730469 111.667969 C 210.730469 56.953125 166.378906 12.601563 111.664063 12.601563 C 56.949219 12.601563 12.597656 56.953125 12.597656 111.667969 C 12.597656 166.378906 56.949219 210.734375 111.664063 210.734375 C 166.378906 210.734375 210.730469 166.378906 210.730469 111.667969 Z M 210.730469 111.667969" />
    </clipPath>
    <clipPath id="svg902120986741tikz_00001p">
      <path d="M 148 44 L 151 44 L 151 52 L 148 52 Z M 148 44" />
    </clipPath>
    <clipPath id="svg902120986741tikz_00001q">
      <path d="M 210.730469 111.667969 C 210.730469 56.953125 166.378906 12.601563 111.664063 12.601563 C 56.949219 12.601563 12.597656 56.953125 12.597656 111.667969 C 12.597656 166.378906 56.949219 210.734375 111.664063 210.734375 C 166.378906 210.734375 210.730469 166.378906 210.730469 111.667969 Z M 210.730469 111.667969" />
    </clipPath>
    <clipPath id="svg902120986741tikz_00001r">
      <path d="M 151 46 L 156 46 L 156 52 L 151 52 Z M 151 46" />
    </clipPath>
    <clipPath id="svg902120986741tikz_00001s">
      <path d="M 210.730469 111.667969 C 210.730469 56.953125 166.378906 12.601563 111.664063 12.601563 C 56.949219 12.601563 12.597656 56.953125 12.597656 111.667969 C 12.597656 166.378906 56.949219 210.734375 111.664063 210.734375 C 166.378906 210.734375 210.730469 166.378906 210.730469 111.667969 Z M 210.730469 111.667969" />
    </clipPath>
    <clipPath id="svg902120986741tikz_00001t">
      <path d="M 156 46 L 163 46 L 163 52 L 156 52 Z M 156 46" />
    </clipPath>
    <clipPath id="svg902120986741tikz_00001u">
      <path d="M 210.730469 111.667969 C 210.730469 56.953125 166.378906 12.601563 111.664063 12.601563 C 56.949219 12.601563 12.597656 56.953125 12.597656 111.667969 C 12.597656 166.378906 56.949219 210.734375 111.664063 210.734375 C 166.378906 210.734375 210.730469 166.378906 210.730469 111.667969 Z M 210.730469 111.667969" />
    </clipPath>
    <clipPath id="svg902120986741tikz_00001v">
      <path d="M 130 61 L 135 61 L 135 69 L 130 69 Z M 130 61" />
    </clipPath>
    <clipPath id="svg902120986741tikz_00001w">
      <path d="M 210.730469 111.667969 C 210.730469 56.953125 166.378906 12.601563 111.664063 12.601563 C 56.949219 12.601563 12.597656 56.953125 12.597656 111.667969 C 12.597656 166.378906 56.949219 210.734375 111.664063 210.734375 C 166.378906 210.734375 210.730469 166.378906 210.730469 111.667969 Z M 210.730469 111.667969" />
    </clipPath>
    <clipPath id="svg902120986741tikz_00001x">
      <path d="M 135 61 L 140 61 L 140 69 L 135 69 Z M 135 61" />
    </clipPath>
    <clipPath id="svg902120986741tikz_00001y">
      <path d="M 210.730469 111.667969 C 210.730469 56.953125 166.378906 12.601563 111.664063 12.601563 C 56.949219 12.601563 12.597656 56.953125 12.597656 111.667969 C 12.597656 166.378906 56.949219 210.734375 111.664063 210.734375 C 166.378906 210.734375 210.730469 166.378906 210.730469 111.667969 Z M 210.730469 111.667969" />
    </clipPath>
    <clipPath id="svg902120986741tikz_00001z">
      <path d="M 142 61 L 150 61 L 150 69 L 142 69 Z M 142 61" />
    </clipPath>
    <clipPath id="svg902120986741tikz_00001A">
      <path d="M 210.730469 111.667969 C 210.730469 56.953125 166.378906 12.601563 111.664063 12.601563 C 56.949219 12.601563 12.597656 56.953125 12.597656 111.667969 C 12.597656 166.378906 56.949219 210.734375 111.664063 210.734375 C 166.378906 210.734375 210.730469 166.378906 210.730469 111.667969 Z M 210.730469 111.667969" />
    </clipPath>
    <clipPath id="svg902120986741tikz_00001B">
      <path d="M 12 12 L 112 12 L 112 181 L 12 181 Z M 12 12" />
    </clipPath>
    <clipPath id="svg902120986741tikz_00001C">
      <path d="M 210.730469 111.667969 C 210.730469 56.953125 166.378906 12.601563 111.664063 12.601563 C 56.949219 12.601563 12.597656 56.953125 12.597656 111.667969 C 12.597656 166.378906 56.949219 210.734375 111.664063 210.734375 C 166.378906 210.734375 210.730469 166.378906 210.730469 111.667969 Z M 210.730469 111.667969" />
    </clipPath>
    <clipPath id="svg902120986741tikz_00001D">
      <path d="M 12 12 L 129 12 L 129 198 L 12 198 Z M 12 12" />
    </clipPath>
    <clipPath id="svg902120986741tikz_00001E">
      <path d="M 210.730469 111.667969 C 210.730469 56.953125 166.378906 12.601563 111.664063 12.601563 C 56.949219 12.601563 12.597656 56.953125 12.597656 111.667969 C 12.597656 166.378906 56.949219 210.734375 111.664063 210.734375 C 166.378906 210.734375 210.730469 166.378906 210.730469 111.667969 Z M 210.730469 111.667969" />
    </clipPath>
    <clipPath id="svg902120986741tikz_00001F">
      <path d="M 38 72 L 45 72 L 45 80 L 38 80 Z M 38 72" />
    </clipPath>
    <clipPath id="svg902120986741tikz_00001G">
      <path d="M 210.730469 111.667969 C 210.730469 56.953125 166.378906 12.601563 111.664063 12.601563 C 56.949219 12.601563 12.597656 56.953125 12.597656 111.667969 C 12.597656 166.378906 56.949219 210.734375 111.664063 210.734375 C 166.378906 210.734375 210.730469 166.378906 210.730469 111.667969 Z M 210.730469 111.667969" />
    </clipPath>
    <clipPath id="svg902120986741tikz_00001H">
      <path d="M 45 74 L 51 74 L 51 80 L 45 80 Z M 45 74" />
    </clipPath>
    <clipPath id="svg902120986741tikz_00001I">
      <path d="M 210.730469 111.667969 C 210.730469 56.953125 166.378906 12.601563 111.664063 12.601563 C 56.949219 12.601563 12.597656 56.953125 12.597656 111.667969 C 12.597656 166.378906 56.949219 210.734375 111.664063 210.734375 C 166.378906 210.734375 210.730469 166.378906 210.730469 111.667969 Z M 210.730469 111.667969" />
    </clipPath>
    <clipPath id="svg902120986741tikz_00001J">
      <path d="M 50 74 L 56 74 L 56 80 L 50 80 Z M 50 74" />
    </clipPath>
    <clipPath id="svg902120986741tikz_00001K">
      <path d="M 210.730469 111.667969 C 210.730469 56.953125 166.378906 12.601563 111.664063 12.601563 C 56.949219 12.601563 12.597656 56.953125 12.597656 111.667969 C 12.597656 166.378906 56.949219 210.734375 111.664063 210.734375 C 166.378906 210.734375 210.730469 166.378906 210.730469 111.667969 Z M 210.730469 111.667969" />
    </clipPath>
    <clipPath id="svg902120986741tikz_00001L">
      <path d="M 55 74 L 61 74 L 61 80 L 55 80 Z M 55 74" />
    </clipPath>
    <clipPath id="svg902120986741tikz_00001M">
      <path d="M 210.730469 111.667969 C 210.730469 56.953125 166.378906 12.601563 111.664063 12.601563 C 56.949219 12.601563 12.597656 56.953125 12.597656 111.667969 C 12.597656 166.378906 56.949219 210.734375 111.664063 210.734375 C 166.378906 210.734375 210.730469 166.378906 210.730469 111.667969 Z M 210.730469 111.667969" />
    </clipPath>
    <clipPath id="svg902120986741tikz_00001N">
      <path d="M 60 71 L 64 71 L 64 80 L 60 80 Z M 60 71" />
    </clipPath>
    <clipPath id="svg902120986741tikz_00001O">
      <path d="M 210.730469 111.667969 C 210.730469 56.953125 166.378906 12.601563 111.664063 12.601563 C 56.949219 12.601563 12.597656 56.953125 12.597656 111.667969 C 12.597656 166.378906 56.949219 210.734375 111.664063 210.734375 C 166.378906 210.734375 210.730469 166.378906 210.730469 111.667969 Z M 210.730469 111.667969" />
    </clipPath>
    <clipPath id="svg902120986741tikz_00001P">
      <path d="M 64 76 L 67 76 L 67 78 L 64 78 Z M 64 76" />
    </clipPath>
    <clipPath id="svg902120986741tikz_00001Q">
      <path d="M 210.730469 111.667969 C 210.730469 56.953125 166.378906 12.601563 111.664063 12.601563 C 56.949219 12.601563 12.597656 56.953125 12.597656 111.667969 C 12.597656 166.378906 56.949219 210.734375 111.664063 210.734375 C 166.378906 210.734375 210.730469 166.378906 210.730469 111.667969 Z M 210.730469 111.667969" />
    </clipPath>
    <clipPath id="svg902120986741tikz_00001R">
      <path d="M 43 88 L 47 88 L 47 97 L 43 97 Z M 43 88" />
    </clipPath>
    <clipPath id="svg902120986741tikz_00001S">
      <path d="M 210.730469 111.667969 C 210.730469 56.953125 166.378906 12.601563 111.664063 12.601563 C 56.949219 12.601563 12.597656 56.953125 12.597656 111.667969 C 12.597656 166.378906 56.949219 210.734375 111.664063 210.734375 C 166.378906 210.734375 210.730469 166.378906 210.730469 111.667969 Z M 210.730469 111.667969" />
    </clipPath>
    <clipPath id="svg902120986741tikz_00001T">
      <path d="M 47 90 L 52 90 L 52 97 L 47 97 Z M 47 90" />
    </clipPath>
    <clipPath id="svg902120986741tikz_00001U">
      <path d="M 210.730469 111.667969 C 210.730469 56.953125 166.378906 12.601563 111.664063 12.601563 C 56.949219 12.601563 12.597656 56.953125 12.597656 111.667969 C 12.597656 166.378906 56.949219 210.734375 111.664063 210.734375 C 166.378906 210.734375 210.730469 166.378906 210.730469 111.667969 Z M 210.730469 111.667969" />
    </clipPath>
    <clipPath id="svg902120986741tikz_00001V">
      <path d="M 52 90 L 59 90 L 59 97 L 52 97 Z M 52 90" />
    </clipPath>
    <clipPath id="svg902120986741tikz_00001W">
      <path d="M 210.730469 111.667969 C 210.730469 56.953125 166.378906 12.601563 111.664063 12.601563 C 56.949219 12.601563 12.597656 56.953125 12.597656 111.667969 C 12.597656 166.378906 56.949219 210.734375 111.664063 210.734375 C 166.378906 210.734375 210.730469 166.378906 210.730469 111.667969 Z M 210.730469 111.667969" />
    </clipPath>
    <clipPath id="svg902120986741tikz_00001X">
      <path d="M 58 89 L 62 89 L 62 97 L 58 97 Z M 58 89" />
    </clipPath>
    <clipPath id="svg902120986741tikz_00001Y">
      <path d="M 210.730469 111.667969 C 210.730469 56.953125 166.378906 12.601563 111.664063 12.601563 C 56.949219 12.601563 12.597656 56.953125 12.597656 111.667969 C 12.597656 166.378906 56.949219 210.734375 111.664063 210.734375 C 166.378906 210.734375 210.730469 166.378906 210.730469 111.667969 Z M 210.730469 111.667969" />
    </clipPath>
    <clipPath id="svg902120986741tikz_00001Z">
      <path d="M 42 106 L 48 106 L 48 114 L 42 114 Z M 42 106" />
    </clipPath>
    <clipPath id="svg902120986741tikz_00001aa">
      <path d="M 210.730469 111.667969 C 210.730469 56.953125 166.378906 12.601563 111.664063 12.601563 C 56.949219 12.601563 12.597656 56.953125 12.597656 111.667969 C 12.597656 166.378906 56.949219 210.734375 111.664063 210.734375 C 166.378906 210.734375 210.730469 166.378906 210.730469 111.667969 Z M 210.730469 111.667969" />
    </clipPath>
    <clipPath id="svg902120986741tikz_00001ab">
      <path d="M 48 106 L 54 106 L 54 114 L 48 114 Z M 48 106" />
    </clipPath>
    <clipPath id="svg902120986741tikz_00001ac">
      <path d="M 210.730469 111.667969 C 210.730469 56.953125 166.378906 12.601563 111.664063 12.601563 C 56.949219 12.601563 12.597656 56.953125 12.597656 111.667969 C 12.597656 166.378906 56.949219 210.734375 111.664063 210.734375 C 166.378906 210.734375 210.730469 166.378906 210.730469 111.667969 Z M 210.730469 111.667969" />
    </clipPath>
    <clipPath id="svg902120986741tikz_00001ad">
      <path d="M 55 105 L 63 105 L 63 114 L 55 114 Z M 55 105" />
    </clipPath>
    <clipPath id="svg902120986741tikz_00001ae">
      <path d="M 210.730469 111.667969 C 210.730469 56.953125 166.378906 12.601563 111.664063 12.601563 C 56.949219 12.601563 12.597656 56.953125 12.597656 111.667969 C 12.597656 166.378906 56.949219 210.734375 111.664063 210.734375 C 166.378906 210.734375 210.730469 166.378906 210.730469 111.667969 Z M 210.730469 111.667969" />
    </clipPath>
    <clipPath id="svg902120986741tikz_00001af">
      <path d="M 12 111 L 112 111 L 112 211 L 12 211 Z M 12 111" />
    </clipPath>
    <clipPath id="svg902120986741tikz_00001ag">
      <path d="M 210.730469 111.667969 C 210.730469 56.953125 166.378906 12.601563 111.664063 12.601563 C 56.949219 12.601563 12.597656 56.953125 12.597656 111.667969 C 12.597656 166.378906 56.949219 210.734375 111.664063 210.734375 C 166.378906 210.734375 210.730469 166.378906 210.730469 111.667969 Z M 210.730469 111.667969" />
    </clipPath>
    <clipPath id="svg902120986741tikz_00001ah">
      <path d="M 12 94 L 129 94 L 129 211 L 12 211 Z M 12 94" />
    </clipPath>
    <clipPath id="svg902120986741tikz_00001ai">
      <path d="M 210.730469 111.667969 C 210.730469 56.953125 166.378906 12.601563 111.664063 12.601563 C 56.949219 12.601563 12.597656 56.953125 12.597656 111.667969 C 12.597656 166.378906 56.949219 210.734375 111.664063 210.734375 C 166.378906 210.734375 210.730469 166.378906 210.730469 111.667969 Z M 210.730469 111.667969" />
    </clipPath>
    <clipPath id="svg902120986741tikz_00001aj">
      <path d="M 56 134 L 62 134 L 62 143 L 56 143 Z M 56 134" />
    </clipPath>
    <clipPath id="svg902120986741tikz_00001ak">
      <path d="M 210.730469 111.667969 C 210.730469 56.953125 166.378906 12.601563 111.664063 12.601563 C 56.949219 12.601563 12.597656 56.953125 12.597656 111.667969 C 12.597656 166.378906 56.949219 210.734375 111.664063 210.734375 C 166.378906 210.734375 210.730469 166.378906 210.730469 111.667969 Z M 210.730469 111.667969" />
    </clipPath>
    <clipPath id="svg902120986741tikz_00001al">
      <path d="M 62 136 L 68 136 L 68 143 L 62 143 Z M 62 136" />
    </clipPath>
    <clipPath id="svg902120986741tikz_00001am">
      <path d="M 210.730469 111.667969 C 210.730469 56.953125 166.378906 12.601563 111.664063 12.601563 C 56.949219 12.601563 12.597656 56.953125 12.597656 111.667969 C 12.597656 166.378906 56.949219 210.734375 111.664063 210.734375 C 166.378906 210.734375 210.730469 166.378906 210.730469 111.667969 Z M 210.730469 111.667969" />
    </clipPath>
    <clipPath id="svg902120986741tikz_00001an">
      <path d="M 67 136 L 72 136 L 72 143 L 67 143 Z M 67 136" />
    </clipPath>
    <clipPath id="svg902120986741tikz_00001ao">
      <path d="M 210.730469 111.667969 C 210.730469 56.953125 166.378906 12.601563 111.664063 12.601563 C 56.949219 12.601563 12.597656 56.953125 12.597656 111.667969 C 12.597656 166.378906 56.949219 210.734375 111.664063 210.734375 C 166.378906 210.734375 210.730469 166.378906 210.730469 111.667969 Z M 210.730469 111.667969" />
    </clipPath>
    <clipPath id="svg902120986741tikz_00001ap">
      <path d="M 72 136 L 76 136 L 76 143 L 72 143 Z M 72 136" />
    </clipPath>
    <clipPath id="svg902120986741tikz_00001aq">
      <path d="M 210.730469 111.667969 C 210.730469 56.953125 166.378906 12.601563 111.664063 12.601563 C 56.949219 12.601563 12.597656 56.953125 12.597656 111.667969 C 12.597656 166.378906 56.949219 210.734375 111.664063 210.734375 C 166.378906 210.734375 210.730469 166.378906 210.730469 111.667969 Z M 210.730469 111.667969" />
    </clipPath>
    <clipPath id="svg902120986741tikz_00001ar">
      <path d="M 76 139 L 80 139 L 80 140 L 76 140 Z M 76 139" />
    </clipPath>
    <clipPath id="svg902120986741tikz_00001as">
      <path d="M 210.730469 111.667969 C 210.730469 56.953125 166.378906 12.601563 111.664063 12.601563 C 56.949219 12.601563 12.597656 56.953125 12.597656 111.667969 C 12.597656 166.378906 56.949219 210.734375 111.664063 210.734375 C 166.378906 210.734375 210.730469 166.378906 210.730469 111.667969 Z M 210.730469 111.667969" />
    </clipPath>
    <clipPath id="svg902120986741tikz_00001at">
      <path d="M 58 153 L 64 153 L 64 160 L 58 160 Z M 58 153" />
    </clipPath>
    <clipPath id="svg902120986741tikz_00001au">
      <path d="M 210.730469 111.667969 C 210.730469 56.953125 166.378906 12.601563 111.664063 12.601563 C 56.949219 12.601563 12.597656 56.953125 12.597656 111.667969 C 12.597656 166.378906 56.949219 210.734375 111.664063 210.734375 C 166.378906 210.734375 210.730469 166.378906 210.730469 111.667969 Z M 210.730469 111.667969" />
    </clipPath>
    <clipPath id="svg902120986741tikz_00001av">
      <path d="M 63 151 L 69 151 L 69 160 L 63 160 Z M 63 151" />
    </clipPath>
    <clipPath id="svg902120986741tikz_00001aw">
      <path d="M 210.730469 111.667969 C 210.730469 56.953125 166.378906 12.601563 111.664063 12.601563 C 56.949219 12.601563 12.597656 56.953125 12.597656 111.667969 C 12.597656 166.378906 56.949219 210.734375 111.664063 210.734375 C 166.378906 210.734375 210.730469 166.378906 210.730469 111.667969 Z M 210.730469 111.667969" />
    </clipPath>
    <clipPath id="svg902120986741tikz_00001ax">
      <path d="M 69 151 L 73 151 L 73 160 L 69 160 Z M 69 151" />
    </clipPath>
    <clipPath id="svg902120986741tikz_00001ay">
      <path d="M 210.730469 111.667969 C 210.730469 56.953125 166.378906 12.601563 111.664063 12.601563 C 56.949219 12.601563 12.597656 56.953125 12.597656 111.667969 C 12.597656 166.378906 56.949219 210.734375 111.664063 210.734375 C 166.378906 210.734375 210.730469 166.378906 210.730469 111.667969 Z M 210.730469 111.667969" />
    </clipPath>
    <clipPath id="svg902120986741tikz_00001az">
      <path d="M 72 153 L 78 153 L 78 160 L 72 160 Z M 72 153" />
    </clipPath>
    <clipPath id="svg902120986741tikz_00001aA">
      <path d="M 210.730469 111.667969 C 210.730469 56.953125 166.378906 12.601563 111.664063 12.601563 C 56.949219 12.601563 12.597656 56.953125 12.597656 111.667969 C 12.597656 166.378906 56.949219 210.734375 111.664063 210.734375 C 166.378906 210.734375 210.730469 166.378906 210.730469 111.667969 Z M 210.730469 111.667969" />
    </clipPath>
    <clipPath id="svg902120986741tikz_00001aB">
      <path d="M 58 168 L 63 168 L 63 176 L 58 176 Z M 58 168" />
    </clipPath>
    <clipPath id="svg902120986741tikz_00001aC">
      <path d="M 210.730469 111.667969 C 210.730469 56.953125 166.378906 12.601563 111.664063 12.601563 C 56.949219 12.601563 12.597656 56.953125 12.597656 111.667969 C 12.597656 166.378906 56.949219 210.734375 111.664063 210.734375 C 166.378906 210.734375 210.730469 166.378906 210.730469 111.667969 Z M 210.730469 111.667969" />
    </clipPath>
    <clipPath id="svg902120986741tikz_00001aD">
      <path d="M 63 168 L 69 168 L 69 176 L 63 176 Z M 63 168" />
    </clipPath>
    <clipPath id="svg902120986741tikz_00001aE">
      <path d="M 210.730469 111.667969 C 210.730469 56.953125 166.378906 12.601563 111.664063 12.601563 C 56.949219 12.601563 12.597656 56.953125 12.597656 111.667969 C 12.597656 166.378906 56.949219 210.734375 111.664063 210.734375 C 166.378906 210.734375 210.730469 166.378906 210.730469 111.667969 Z M 210.730469 111.667969" />
    </clipPath>
    <clipPath id="svg902120986741tikz_00001aF">
      <path d="M 71 168 L 78 168 L 78 177 L 71 177 Z M 71 168" />
    </clipPath>
    <clipPath id="svg902120986741tikz_00001aG">
      <path d="M 210.730469 111.667969 C 210.730469 56.953125 166.378906 12.601563 111.664063 12.601563 C 56.949219 12.601563 12.597656 56.953125 12.597656 111.667969 C 12.597656 166.378906 56.949219 210.734375 111.664063 210.734375 C 166.378906 210.734375 210.730469 166.378906 210.730469 111.667969 Z M 210.730469 111.667969" />
    </clipPath>
    <clipPath id="svg902120986741tikz_00001aH">
      <path d="M 130 139 L 137 139 L 137 148 L 130 148 Z M 130 139" />
    </clipPath>
    <clipPath id="svg902120986741tikz_00001aI">
      <path d="M 210.730469 111.667969 C 210.730469 56.953125 166.378906 12.601563 111.664063 12.601563 C 56.949219 12.601563 12.597656 56.953125 12.597656 111.667969 C 12.597656 166.378906 56.949219 210.734375 111.664063 210.734375 C 166.378906 210.734375 210.730469 166.378906 210.730469 111.667969 Z M 210.730469 111.667969" />
    </clipPath>
    <clipPath id="svg902120986741tikz_00001aJ">
      <path d="M 137 139 L 140 139 L 140 148 L 137 148 Z M 137 139" />
    </clipPath>
    <clipPath id="svg902120986741tikz_00001aK">
      <path d="M 210.730469 111.667969 C 210.730469 56.953125 166.378906 12.601563 111.664063 12.601563 C 56.949219 12.601563 12.597656 56.953125 12.597656 111.667969 C 12.597656 166.378906 56.949219 210.734375 111.664063 210.734375 C 166.378906 210.734375 210.730469 166.378906 210.730469 111.667969 Z M 210.730469 111.667969" />
    </clipPath>
    <clipPath id="svg902120986741tikz_00001aL">
      <path d="M 140 141 L 145 141 L 145 148 L 140 148 Z M 140 141" />
    </clipPath>
    <clipPath id="svg902120986741tikz_00001aM">
      <path d="M 210.730469 111.667969 C 210.730469 56.953125 166.378906 12.601563 111.664063 12.601563 C 56.949219 12.601563 12.597656 56.953125 12.597656 111.667969 C 12.597656 166.378906 56.949219 210.734375 111.664063 210.734375 C 166.378906 210.734375 210.730469 166.378906 210.730469 111.667969 Z M 210.730469 111.667969" />
    </clipPath>
    <clipPath id="svg902120986741tikz_00001aN">
      <path d="M 145 141 L 152 141 L 152 148 L 145 148 Z M 145 141" />
    </clipPath>
    <clipPath id="svg902120986741tikz_00001aO">
      <path d="M 210.730469 111.667969 C 210.730469 56.953125 166.378906 12.601563 111.664063 12.601563 C 56.949219 12.601563 12.597656 56.953125 12.597656 111.667969 C 12.597656 166.378906 56.949219 210.734375 111.664063 210.734375 C 166.378906 210.734375 210.730469 166.378906 210.730469 111.667969 Z M 210.730469 111.667969" />
    </clipPath>
    <clipPath id="svg902120986741tikz_00001aP">
      <path d="M 131 156 L 136 156 L 136 165 L 131 165 Z M 131 156" />
    </clipPath>
    <clipPath id="svg902120986741tikz_00001aQ">
      <path d="M 210.730469 111.667969 C 210.730469 56.953125 166.378906 12.601563 111.664063 12.601563 C 56.949219 12.601563 12.597656 56.953125 12.597656 111.667969 C 12.597656 166.378906 56.949219 210.734375 111.664063 210.734375 C 166.378906 210.734375 210.730469 166.378906 210.730469 111.667969 Z M 210.730469 111.667969" />
    </clipPath>
    <clipPath id="svg902120986741tikz_00001aR">
      <path d="M 136 156 L 142 156 L 142 165 L 136 165 Z M 136 156" />
    </clipPath>
    <clipPath id="svg902120986741tikz_00001aS">
      <path d="M 210.730469 111.667969 C 210.730469 56.953125 166.378906 12.601563 111.664063 12.601563 C 56.949219 12.601563 12.597656 56.953125 12.597656 111.667969 C 12.597656 166.378906 56.949219 210.734375 111.664063 210.734375 C 166.378906 210.734375 210.730469 166.378906 210.730469 111.667969 Z M 210.730469 111.667969" />
    </clipPath>
    <clipPath id="svg902120986741tikz_00001aT">
      <path d="M 143 156 L 151 156 L 151 165 L 143 165 Z M 143 156" />
    </clipPath>
    <clipPath id="svg902120986741tikz_00001aU">
      <path d="M 210.730469 111.667969 C 210.730469 56.953125 166.378906 12.601563 111.664063 12.601563 C 56.949219 12.601563 12.597656 56.953125 12.597656 111.667969 C 12.597656 166.378906 56.949219 210.734375 111.664063 210.734375 C 166.378906 210.734375 210.730469 166.378906 210.730469 111.667969 Z M 210.730469 111.667969" />
    </clipPath>
    <clipPath id="svg902120986741tikz_00001aV">
      <path d="M 12 12 L 211 12 L 211 211 L 12 211 Z M 12 12" />
    </clipPath>
    <clipPath id="svg902120986741tikz_00001aW">
      <path d="M 210.730469 111.667969 C 210.730469 56.953125 166.378906 12.601563 111.664063 12.601563 C 56.949219 12.601563 12.597656 56.953125 12.597656 111.667969 C 12.597656 166.378906 56.949219 210.734375 111.664063 210.734375 C 166.378906 210.734375 210.730469 166.378906 210.730469 111.667969 Z M 210.730469 111.667969" />
    </clipPath>
    <clipPath id="svg902120986741tikz_00001aX">
      <path d="M 93 93 L 130 93 L 130 130 L 93 130 Z M 93 93" />
    </clipPath>
    <clipPath id="svg902120986741tikz_00001aY">
      <path d="M 210.730469 111.667969 C 210.730469 56.953125 166.378906 12.601563 111.664063 12.601563 C 56.949219 12.601563 12.597656 56.953125 12.597656 111.667969 C 12.597656 166.378906 56.949219 210.734375 111.664063 210.734375 C 166.378906 210.734375 210.730469 166.378906 210.730469 111.667969 Z M 210.730469 111.667969" />
    </clipPath>
  </defs>
  <path d="M 210.730469 111.667969 C 210.730469 56.953125 166.378906 12.601563 111.664063 12.601563 C 56.949219 12.601563 12.597656 56.953125 12.597656 111.667969 C 12.597656 166.378906 56.949219 210.734375 111.664063 210.734375 C 166.378906 210.734375 210.730469 166.378906 210.730469 111.667969 Z M 210.730469 111.667969" fill="#aed6f1" />
  <g clip-path="url(#svg902120986741tikz_00001a)">
    <path d="M 2107.304688 1116.620313 C 2107.304688 1663.76875 1663.789063 2107.284375 1116.640625 2107.284375 C 569.492188 2107.284375 125.976563 1663.76875 125.976563 1116.620313 C 125.976563 569.510938 569.492188 125.95625 1116.640625 125.95625 C 1663.789063 125.95625 2107.304688 569.510938 2107.304688 1116.620313 Z M 2107.304688 1116.620313" transform="matrix(.1 0 0 -.1 0 223.33)" fill="none" stroke-width="11.955" stroke="#fff" stroke-miterlimit="10" />
  </g>
  <g clip-path="url(#svg902120986741tikz_00001b)">
    <g clip-path="url(#svg902120986741tikz_00001c)">
      <path d="M 111.664063 111.667969 L 334.5625 111.667969 L -19.339844 -68.667969" fill="#abebc6" />
    </g>
  </g>
  <g clip-path="url(#svg902120986741tikz_00001d)">
    <g clip-path="url(#svg902120986741tikz_00001e)">
      <path d="M 1116.640625 1116.620313 L 3345.625 1116.620313 L -193.398438 2919.979688 Z M 1116.640625 1116.620313" transform="matrix(.1 0 0 -.1 0 223.33)" fill="none" stroke-width="11.955" stroke="#fff" stroke-miterlimit="10" />
    </g>
  </g>
  <g clip-path="url(#svg902120986741tikz_00001f)">
    <g clip-path="url(#svg902120986741tikz_00001g)">
      <path d="M 123.449219 46.507813 L 123.359375 44.5 L 117.191406 44.5 L 117.066406 46.507813 L 117.414063 46.507813 C 117.648438 45.292969 117.804688 45.003906 119.03125 45.003906 L 119.746094 45.003906 L 119.746094 50.367188 C 119.746094 51.382813 119.589844 51.496094 118.652344 51.496094 L 118.652344 51.828125 L 121.886719 51.828125 L 121.886719 51.496094 C 120.929688 51.496094 120.78125 51.382813 120.78125 50.367188 L 120.78125 45.003906 L 121.484375 45.003906 C 122.722656 45.003906 122.859375 45.292969 123.101563 46.507813 L 123.449219 46.507813" />
    </g>
  </g>
  <g clip-path="url(#svg902120986741tikz_00001h)">
    <g clip-path="url(#svg902120986741tikz_00001i)">
      <path d="M 125.34375 46.453125 L 125.074219 46.453125 L 123.691406 46.789063 L 123.691406 47.101563 C 123.691406 47.101563 123.8125 47.078125 124.035156 47.078125 C 124.4375 47.078125 124.4375 47.277344 124.4375 47.679688 L 124.4375 50.746094 C 124.4375 51.371094 124.359375 51.507813 123.621094 51.507813 L 123.621094 51.828125 L 126.414063 51.828125 L 126.414063 51.507813 C 125.578125 51.507813 125.363281 51.394531 125.363281 50.691406 L 125.363281 48.148438 C 125.632813 47.703125 125.988281 47.234375 126.246094 47.234375 C 126.378906 47.234375 126.601563 47.613281 126.96875 47.613281 C 127.214844 47.613281 127.460938 47.433594 127.460938 47.011719 C 127.460938 46.632813 127.25 46.386719 126.8125 46.386719 C 126.277344 46.386719 125.945313 46.777344 125.375 47.601563 L 125.34375 47.601563 L 125.34375 46.453125" />
    </g>
  </g>
  <g clip-path="url(#svg902120986741tikz_00001j)">
    <g clip-path="url(#svg902120986741tikz_00001k)">
      <path d="M 132.128906 50.234375 C 131.773438 50.703125 131.425781 51.105469 130.523438 51.105469 C 129.632813 51.105469 128.78125 50.402344 128.78125 48.863281 L 132.308594 48.863281 C 132.253906 47.300781 131.449219 46.417969 130.234375 46.417969 C 128.929688 46.417969 127.878906 47.3125 127.878906 49.175781 C 127.878906 50.972656 128.917969 51.941406 130.257813 51.941406 C 131.40625 51.941406 131.941406 51.238281 132.34375 50.390625 Z M 128.773438 48.449219 C 128.859375 47.414063 129.308594 46.867188 130.066406 46.867188 C 130.859375 46.867188 131.226563 47.625 131.257813 48.449219 Z M 130.023438 44.3125 L 128.996094 44.3125 L 128.996094 44.511719 L 130.367188 46.015625 L 130.800781 46.015625 L 130.023438 44.3125" />
    </g>
  </g>
  <g clip-path="url(#svg902120986741tikz_00001l)">
    <g clip-path="url(#svg902120986741tikz_00001m)">
      <path d="M 133.132813 50 L 133.167969 51.917969 L 133.402344 51.917969 L 133.636719 51.664063 L 133.660156 51.664063 C 133.949219 51.785156 134.285156 51.953125 134.929688 51.953125 C 135.9375 51.953125 136.804688 51.550781 136.804688 50.503906 C 136.804688 49.675781 136.257813 49.265625 135.242188 48.726563 C 134.304688 48.25 133.9375 47.972656 133.9375 47.535156 C 133.9375 47.03125 134.328125 46.800781 134.84375 46.800781 C 135.523438 46.800781 135.9375 47.121094 136.179688 48.183594 L 136.480469 48.183594 L 136.449219 46.476563 L 136.226563 46.476563 L 136.035156 46.710938 L 136.023438 46.710938 C 135.746094 46.574219 135.410156 46.417969 134.851563 46.417969 C 133.894531 46.417969 133.148438 46.910156 133.148438 47.824219 C 133.148438 48.648438 133.601563 49.039063 134.617188 49.554688 C 135.65625 50.066406 135.867188 50.28125 135.867188 50.804688 C 135.867188 51.328125 135.46875 51.539063 134.910156 51.539063 C 134.082031 51.539063 133.660156 51.148438 133.425781 50 L 133.132813 50" />
    </g>
  </g>
  <g clip-path="url(#svg902120986741tikz_00001n)">
    <g clip-path="url(#svg902120986741tikz_00001o)">
      <path d="M 145.464844 47.925781 C 146.390625 47.679688 147.046875 47.234375 147.046875 46.242188 C 147.046875 45.136719 146.300781 44.5 144.3125 44.5 L 141.300781 44.5 L 141.300781 44.835938 C 142.203125 44.835938 142.382813 44.957031 142.382813 45.851563 L 142.382813 50.414063 C 142.382813 51.339844 142.203125 51.496094 141.300781 51.496094 L 141.300781 51.828125 L 144.738281 51.828125 C 146.398438 51.828125 147.40625 51.128906 147.40625 49.855469 C 147.40625 48.640625 146.410156 48.128906 145.464844 47.972656 Z M 143.410156 47.789063 L 143.410156 44.96875 C 143.632813 44.945313 143.867188 44.933594 144.078125 44.933594 C 145.441406 44.933594 145.941406 45.460938 145.941406 46.328125 C 145.941406 47.347656 145.519531 47.789063 144.167969 47.789063 Z M 143.410156 48.261719 L 144.191406 48.261719 C 145.226563 48.261719 146.234375 48.605469 146.234375 49.878906 C 146.234375 51.292969 145.171875 51.417969 144.214844 51.417969 C 143.945313 51.417969 143.679688 51.40625 143.410156 51.382813 L 143.410156 48.261719" />
    </g>
  </g>
  <g clip-path="url(#svg902120986741tikz_00001p)">
    <g clip-path="url(#svg902120986741tikz_00001q)">
      <path d="M 149.417969 44.097656 C 149.027344 44.097656 148.78125 44.390625 148.78125 44.722656 C 148.78125 45.070313 149.039063 45.359375 149.417969 45.359375 C 149.808594 45.359375 150.054688 45.070313 150.054688 44.722656 C 150.054688 44.390625 149.808594 44.097656 149.417969 44.097656 Z M 150.667969 51.515625 C 149.921875 51.515625 149.863281 51.351563 149.863281 50.703125 L 149.863281 46.453125 L 149.574219 46.453125 L 148.167969 46.765625 L 148.167969 47.089844 C 148.167969 47.089844 148.289063 47.066406 148.445313 47.066406 C 148.769531 47.066406 148.9375 47.109375 148.9375 47.589844 L 148.9375 50.703125 C 148.9375 51.339844 148.90625 51.515625 148.15625 51.515625 L 148.15625 51.828125 L 150.667969 51.828125 L 150.667969 51.515625" />
    </g>
  </g>
  <g clip-path="url(#svg902120986741tikz_00001r)">
    <g clip-path="url(#svg902120986741tikz_00001s)">
      <path d="M 155.628906 50.234375 C 155.273438 50.703125 154.925781 51.105469 154.023438 51.105469 C 153.132813 51.105469 152.28125 50.402344 152.28125 48.863281 L 155.808594 48.863281 C 155.753906 47.300781 154.949219 46.417969 153.734375 46.417969 C 152.429688 46.417969 151.378906 47.3125 151.378906 49.175781 C 151.378906 50.972656 152.417969 51.941406 153.757813 51.941406 C 154.90625 51.941406 155.441406 51.238281 155.84375 50.390625 Z M 152.273438 48.449219 C 152.359375 47.414063 152.808594 46.867188 153.566406 46.867188 C 154.359375 46.867188 154.726563 47.625 154.757813 48.449219 L 152.273438 48.449219" />
    </g>
  </g>
  <g clip-path="url(#svg902120986741tikz_00001t)">
    <g clip-path="url(#svg902120986741tikz_00001u)">
      <path d="M 161.566406 48.40625 C 161.566406 47.121094 161.085938 46.417969 160.070313 46.417969 C 159.367188 46.417969 158.878906 46.820313 158.273438 47.355469 L 158.230469 47.355469 L 158.242188 46.453125 L 157.984375 46.453125 L 156.570313 46.777344 L 156.570313 47.101563 C 156.570313 47.101563 156.679688 47.078125 156.867188 47.078125 C 157.171875 47.078125 157.339844 47.164063 157.339844 47.570313 L 157.339844 50.703125 C 157.339844 51.328125 157.304688 51.515625 156.554688 51.515625 L 156.554688 51.828125 L 159.113281 51.828125 L 159.113281 51.515625 C 158.308594 51.515625 158.265625 51.328125 158.265625 50.703125 L 158.265625 47.835938 C 158.597656 47.535156 159.011719 47.132813 159.613281 47.132813 C 160.117188 47.132813 160.640625 47.347656 160.640625 48.683594 L 160.640625 50.703125 C 160.640625 51.328125 160.605469 51.515625 159.8125 51.515625 L 159.8125 51.828125 L 162.390625 51.828125 L 162.390625 51.515625 C 161.644531 51.515625 161.566406 51.328125 161.566406 50.703125 L 161.566406 48.40625" />
    </g>
  </g>
  <g clip-path="url(#svg902120986741tikz_00001v)">
    <g clip-path="url(#svg902120986741tikz_00001w)">
      <path d="M 130.359375 63.074219 C 130.738281 62.484375 131.152344 62.171875 131.820313 62.171875 C 132.511719 62.171875 132.960938 62.550781 132.960938 63.207031 C 132.960938 64.109375 132.167969 64.726563 131.40625 64.726563 L 131.195313 64.726563 L 131.195313 65.148438 L 131.417969 65.148438 C 132.492188 65.148438 133.4375 65.808594 133.4375 66.800781 C 133.4375 67.894531 132.757813 68.21875 132.054688 68.21875 C 131.789063 68.21875 131.632813 68.171875 131.152344 67.925781 C 130.761719 67.726563 130.671875 67.671875 130.492188 67.671875 C 130.203125 67.671875 130.058594 67.925781 130.058594 68.160156 C 130.058594 68.453125 130.304688 68.773438 131.308594 68.773438 C 132.9375 68.773438 134.351563 67.992188 134.351563 66.464844 C 134.351563 65.472656 133.605469 64.882813 132.714844 64.601563 L 132.714844 64.570313 C 133.414063 64.121094 133.917969 63.710938 133.917969 62.941406 C 133.917969 62.09375 133.257813 61.445313 132.121094 61.445313 C 131.207031 61.445313 130.515625 61.957031 130.101563 62.929688 L 130.359375 63.074219" />
    </g>
  </g>
  <g clip-path="url(#svg902120986741tikz_00001x)">
    <g clip-path="url(#svg902120986741tikz_00001y)">
      <path d="M 139.652344 62.503906 L 139.832031 61.601563 L 136.773438 61.601563 L 136.082031 64.511719 L 136.214844 64.679688 C 136.371094 64.679688 136.429688 64.679688 136.71875 64.703125 C 138.257813 64.78125 139.128906 65.238281 139.128906 66.632813 C 139.128906 67.792969 138.425781 68.21875 137.632813 68.21875 C 136.917969 68.21875 136.550781 67.671875 136.105469 67.671875 C 135.824219 67.671875 135.65625 67.894531 135.65625 68.148438 C 135.65625 68.5625 136.082031 68.773438 136.941406 68.773438 C 138.714844 68.773438 139.941406 67.90625 139.941406 66.1875 C 139.941406 64.433594 138.570313 63.910156 137.253906 63.8125 L 136.730469 63.777344 L 137.03125 62.503906 L 139.652344 62.503906" />
    </g>
  </g>
  <g clip-path="url(#svg902120986741tikz_00001z)">
    <g clip-path="url(#svg902120986741tikz_00001A)">
      <path d="M 145.578125 62.816406 C 145.578125 63.910156 145.011719 64.835938 144.261719 64.835938 C 143.90625 64.835938 143.671875 64.601563 143.671875 63.820313 C 143.671875 62.964844 143.90625 61.824219 144.886719 61.824219 C 145.265625 61.824219 145.578125 62.160156 145.578125 62.816406 Z M 149.617188 66.5 C 149.617188 65.617188 149.148438 65.171875 148.503906 65.171875 C 147.242188 65.171875 146.5625 66.253906 146.5625 67.480469 C 146.5625 68.351563 147.019531 68.851563 147.789063 68.851563 C 148.792969 68.851563 149.617188 67.914063 149.617188 66.5 Z M 149.238281 66.488281 C 149.238281 67.59375 148.660156 68.484375 147.890625 68.484375 C 147.554688 68.484375 147.332031 68.21875 147.332031 67.558594 C 147.332031 66.554688 147.578125 65.472656 148.535156 65.472656 C 148.914063 65.472656 149.238281 65.808594 149.238281 66.488281 Z M 148.9375 61.199219 L 148.4375 61.199219 C 147.507813 62.136719 147.21875 62.191406 146.707031 62.191406 C 145.8125 62.191406 145.621094 61.523438 144.808594 61.523438 C 143.726563 61.523438 142.902344 62.484375 142.902344 63.8125 C 142.902344 64.667969 143.339844 65.203125 144.117188 65.203125 C 145.265625 65.203125 145.960938 64.066406 145.960938 62.886719 C 145.960938 62.695313 145.925781 62.492188 145.882813 62.339844 L 145.902344 62.316406 C 146.214844 62.449219 146.371094 62.492188 146.660156 62.492188 C 147.230469 62.492188 147.519531 62.339844 147.8125 62.136719 L 147.867188 62.136719 L 143.882813 68.863281 L 144.417969 68.863281 L 148.9375 61.199219" />
    </g>
  </g>
  <g clip-path="url(#svg902120986741tikz_00001B)">
    <g clip-path="url(#svg902120986741tikz_00001C)">
      <path d="M 111.664063 111.667969 L -19.339844 -68.667969 L -100.332031 180.53125" fill="#f5b7b1" />
    </g>
  </g>
  <g clip-path="url(#svg902120986741tikz_00001D)">
    <g clip-path="url(#svg902120986741tikz_00001E)">
      <path d="M 1116.640625 1116.620313 L -193.398438 2919.979688 L -1003.320313 427.9875 Z M 1116.640625 1116.620313" transform="matrix(.1 0 0 -.1 0 223.33)" fill="none" stroke-width="11.955" stroke="#fff" stroke-miterlimit="10" />
    </g>
  </g>
  <g clip-path="url(#svg902120986741tikz_00001F)">
    <g clip-path="url(#svg902120986741tikz_00001G)">
      <path d="M 44.871094 77.453125 L 44.515625 77.453125 C 44.078125 78.78125 43.878906 79.050781 42.148438 79.039063 L 40.710938 79.039063 L 40.710938 75.972656 L 42.015625 75.972656 C 43.042969 75.972656 43.265625 76.09375 43.265625 77.007813 L 43.621094 77.007813 L 43.621094 74.421875 L 43.265625 74.421875 C 43.265625 75.324219 43.042969 75.535156 42.015625 75.535156 L 40.710938 75.535156 L 40.710938 72.703125 L 42.351563 72.703125 C 43.722656 72.703125 44 72.914063 44.167969 74.03125 L 44.523438 74.03125 L 44.460938 72.199219 L 38.601563 72.199219 L 38.601563 72.535156 C 39.503906 72.535156 39.683594 72.714844 39.683594 73.5625 L 39.683594 78.214844 C 39.683594 79.082031 39.503906 79.195313 38.601563 79.195313 L 38.601563 79.53125 L 44.558594 79.53125 L 44.871094 77.453125" />
    </g>
  </g>
  <g clip-path="url(#svg902120986741tikz_00001H)">
    <g clip-path="url(#svg902120986741tikz_00001I)">
      <path d="M 50.578125 79.53125 L 50.578125 79.207031 C 50.164063 79.207031 49.996094 79.003906 49.683594 78.558594 L 48.3125 76.617188 L 49.496094 75.101563 C 49.75 74.777344 50.007813 74.578125 50.386719 74.578125 L 50.386719 74.253906 L 48.546875 74.253906 L 48.546875 74.566406 C 48.902344 74.566406 49.003906 74.664063 49.003906 74.832031 C 49.003906 75.011719 48.902344 75.179688 48.601563 75.59375 L 48.078125 76.351563 L 48.035156 76.351563 L 47.765625 75.859375 C 47.386719 75.234375 47.1875 75 47.1875 74.820313 C 47.1875 74.65625 47.363281 74.566406 47.722656 74.566406 L 47.722656 74.253906 L 45.324219 74.253906 L 45.324219 74.578125 C 45.78125 74.578125 45.914063 74.6875 46.304688 75.246094 L 47.464844 76.90625 L 46.125 78.648438 C 45.757813 79.082031 45.554688 79.207031 45.179688 79.207031 L 45.179688 79.53125 L 47.039063 79.53125 L 47.039063 79.207031 C 46.671875 79.207031 46.539063 79.160156 46.539063 79.039063 C 46.539063 78.949219 46.695313 78.75 46.804688 78.570313 L 47.722656 77.253906 L 47.765625 77.253906 L 47.988281 77.644531 L 48.691406 78.726563 C 48.75 78.816406 48.769531 78.882813 48.769531 78.960938 C 48.769531 79.148438 48.636719 79.207031 48.246094 79.207031 L 48.246094 79.53125 L 50.578125 79.53125" />
    </g>
  </g>
  <g clip-path="url(#svg902120986741tikz_00001J)">
    <g clip-path="url(#svg902120986741tikz_00001K)">
      <path d="M 55.050781 77.878906 C 54.550781 78.523438 54.171875 78.804688 53.445313 78.804688 C 52.296875 78.804688 51.75 77.847656 51.75 76.484375 C 51.75 75.203125 52.296875 74.53125 53.199219 74.53125 C 54.160156 74.53125 53.789063 75.804688 54.617188 75.804688 C 54.929688 75.804688 55.085938 75.625 55.085938 75.300781 C 55.085938 74.65625 54.4375 74.117188 53.390625 74.117188 C 51.78125 74.117188 50.867188 75.257813 50.867188 77.007813 C 50.867188 78.558594 51.703125 79.640625 53.101563 79.640625 C 54.292969 79.640625 54.839844 78.9375 55.265625 78.035156 L 55.050781 77.878906" />
    </g>
  </g>
  <g clip-path="url(#svg902120986741tikz_00001L)">
    <g clip-path="url(#svg902120986741tikz_00001M)">
      <path d="M 60.128906 77.933594 C 59.773438 78.402344 59.425781 78.804688 58.523438 78.804688 C 57.632813 78.804688 56.78125 78.101563 56.78125 76.5625 L 60.308594 76.5625 C 60.253906 75 59.449219 74.117188 58.234375 74.117188 C 56.929688 74.117188 55.878906 75.011719 55.878906 76.875 C 55.878906 78.671875 56.917969 79.640625 58.257813 79.640625 C 59.40625 79.640625 59.941406 78.9375 60.34375 78.089844 Z M 56.773438 76.148438 C 56.859375 75.113281 57.308594 74.566406 58.066406 74.566406 C 58.859375 74.566406 59.226563 75.324219 59.257813 76.148438 L 56.773438 76.148438" />
    </g>
  </g>
  <g clip-path="url(#svg902120986741tikz_00001N)">
    <g clip-path="url(#svg902120986741tikz_00001O)">
      <path d="M 63.601563 79.207031 C 62.796875 79.207031 62.742188 79.050781 62.742188 78.402344 L 62.742188 71.652344 L 62.460938 71.652344 L 60.992188 72.042969 L 60.992188 72.347656 C 60.992188 72.347656 61.15625 72.324219 61.347656 72.324219 C 61.625 72.324219 61.816406 72.347656 61.816406 72.804688 L 61.816406 78.402344 C 61.816406 79.027344 61.769531 79.207031 61.035156 79.207031 L 61.035156 79.53125 L 63.601563 79.53125 L 63.601563 79.207031" />
    </g>
  </g>
  <g clip-path="url(#svg902120986741tikz_00001P)">
    <g clip-path="url(#svg902120986741tikz_00001Q)">
      <path d="M 64.300781 77.097656 L 66.8125 77.097656 L 66.8125 76.371094 L 64.300781 76.371094 Z M 64.300781 77.097656" />
    </g>
  </g>
  <g clip-path="url(#svg902120986741tikz_00001R)">
    <g clip-path="url(#svg902120986741tikz_00001S)">
      <path d="M 46.5 96.007813 C 45.695313 96.007813 45.640625 95.851563 45.640625 95.203125 L 45.640625 88.453125 L 45.363281 88.453125 L 43.890625 88.84375 L 43.890625 89.144531 C 43.890625 89.144531 44.058594 89.125 44.246094 89.125 C 44.527344 89.125 44.714844 89.144531 44.714844 89.601563 L 44.714844 95.203125 C 44.714844 95.828125 44.671875 96.007813 43.933594 96.007813 L 43.933594 96.328125 L 46.5 96.328125 L 46.5 96.007813" />
    </g>
  </g>
  <g clip-path="url(#svg902120986741tikz_00001T)">
    <g clip-path="url(#svg902120986741tikz_00001U)">
      <path d="M 51.429688 94.734375 C 51.074219 95.203125 50.726563 95.605469 49.824219 95.605469 C 48.929688 95.605469 48.082031 94.902344 48.082031 93.363281 L 51.609375 93.363281 C 51.554688 91.800781 50.75 90.917969 49.53125 90.917969 C 48.226563 90.917969 47.179688 91.8125 47.179688 93.675781 C 47.179688 95.472656 48.21875 96.441406 49.554688 96.441406 C 50.703125 96.441406 51.242188 95.738281 51.640625 94.890625 Z M 48.070313 92.949219 C 48.160156 91.914063 48.609375 91.367188 49.367188 91.367188 C 50.15625 91.367188 50.527344 92.125 50.558594 92.949219 L 48.070313 92.949219" />
    </g>
  </g>
  <g clip-path="url(#svg902120986741tikz_00001V)">
    <g clip-path="url(#svg902120986741tikz_00001W)">
      <path d="M 57.367188 92.90625 C 57.367188 91.621094 56.886719 90.917969 55.871094 90.917969 C 55.167969 90.917969 54.679688 91.320313 54.074219 91.855469 L 54.03125 91.855469 L 54.042969 90.953125 L 53.785156 90.953125 L 52.367188 91.277344 L 52.367188 91.601563 C 52.367188 91.601563 52.480469 91.578125 52.667969 91.578125 C 52.96875 91.578125 53.136719 91.664063 53.136719 92.070313 L 53.136719 95.203125 C 53.136719 95.828125 53.105469 96.015625 52.355469 96.015625 L 52.355469 96.328125 L 54.914063 96.328125 L 54.914063 96.015625 C 54.109375 96.015625 54.0625 95.828125 54.0625 95.203125 L 54.0625 92.335938 C 54.398438 92.035156 54.8125 91.632813 55.414063 91.632813 C 55.914063 91.632813 56.441406 91.847656 56.441406 93.183594 L 56.441406 95.203125 C 56.441406 95.828125 56.40625 96.015625 55.613281 96.015625 L 55.613281 96.328125 L 58.191406 96.328125 L 58.191406 96.015625 C 57.445313 96.015625 57.367188 95.828125 57.367188 95.203125 L 57.367188 92.90625" />
    </g>
  </g>
  <g clip-path="url(#svg902120986741tikz_00001X)">
    <g clip-path="url(#svg902120986741tikz_00001Y)">
      <path d="M 61.667969 95.324219 C 61.390625 95.636719 61.246094 95.78125 60.886719 95.78125 C 60.453125 95.78125 60.351563 95.515625 60.351563 94.722656 L 60.351563 91.523438 L 61.613281 91.523438 L 61.613281 91.054688 L 60.351563 91.054688 L 60.363281 89.523438 L 60.074219 89.523438 C 59.671875 90.472656 59.335938 90.941406 58.8125 91.265625 L 58.8125 91.523438 L 59.425781 91.523438 L 59.425781 95.035156 C 59.425781 96.039063 59.75 96.441406 60.496094 96.441406 C 61.210938 96.441406 61.445313 96.105469 61.882813 95.503906 L 61.667969 95.324219" />
    </g>
  </g>
  <g clip-path="url(#svg902120986741tikz_00001Z)">
    <g clip-path="url(#svg902120986741tikz_00001aa)">
      <path d="M 47.578125 111.445313 L 47.253906 111.445313 C 46.996094 112.113281 46.851563 112.347656 46.257813 112.347656 L 44.710938 112.347656 L 43.929688 112.382813 L 43.929688 112.328125 L 45.402344 110.933594 C 46.585938 109.738281 47.21875 108.96875 47.21875 107.976563 C 47.21875 106.804688 46.335938 106.046875 45.078125 106.046875 C 43.996094 106.046875 43.238281 106.671875 42.890625 107.753906 L 43.160156 107.863281 C 43.570313 107.027344 44.0625 106.769531 44.789063 106.769531 C 45.648438 106.769531 46.179688 107.308594 46.179688 108.140625 C 46.179688 109.3125 45.625 110.015625 44.519531 111.15625 L 42.824219 112.851563 L 42.824219 113.230469 L 47.21875 113.230469 L 47.578125 111.445313" />
    </g>
  </g>
  <g clip-path="url(#svg902120986741tikz_00001ab)">
    <g clip-path="url(#svg902120986741tikz_00001ac)">
      <path d="M 53.222656 109.695313 C 53.222656 107.394531 52.21875 106.066406 50.777344 106.066406 C 49.160156 106.066406 48.300781 107.539063 48.300781 109.660156 C 48.300781 111.636719 48.960938 113.351563 50.757813 113.351563 C 52.507813 113.351563 53.222656 111.601563 53.222656 109.695313 Z M 52.140625 109.761719 C 52.140625 111.902344 51.636719 112.949219 50.757813 112.949219 C 49.863281 112.949219 49.371094 111.878906 49.371094 109.714844 C 49.371094 107.507813 49.863281 106.445313 50.742188 106.445313 C 51.660156 106.445313 52.140625 107.496094 52.140625 109.761719" />
    </g>
  </g>
  <g clip-path="url(#svg902120986741tikz_00001ad)">
    <g clip-path="url(#svg902120986741tikz_00001ae)">
      <path d="M 58.578125 107.417969 C 58.578125 108.511719 58.011719 109.4375 57.261719 109.4375 C 56.90625 109.4375 56.671875 109.203125 56.671875 108.421875 C 56.671875 107.5625 56.90625 106.425781 57.886719 106.425781 C 58.265625 106.425781 58.578125 106.761719 58.578125 107.417969 Z M 62.617188 111.097656 C 62.617188 110.21875 62.148438 109.773438 61.503906 109.773438 C 60.242188 109.773438 59.5625 110.851563 59.5625 112.082031 C 59.5625 112.949219 60.019531 113.453125 60.789063 113.453125 C 61.792969 113.453125 62.617188 112.515625 62.617188 111.097656 Z M 62.238281 111.089844 C 62.238281 112.191406 61.660156 113.085938 60.890625 113.085938 C 60.554688 113.085938 60.332031 112.816406 60.332031 112.160156 C 60.332031 111.15625 60.578125 110.070313 61.535156 110.070313 C 61.914063 110.070313 62.238281 110.40625 62.238281 111.089844 Z M 61.9375 105.800781 L 61.4375 105.800781 C 60.507813 106.734375 60.21875 106.792969 59.707031 106.792969 C 58.8125 106.792969 58.625 106.125 57.808594 106.125 C 56.726563 106.125 55.902344 107.082031 55.902344 108.410156 C 55.902344 109.269531 56.335938 109.804688 57.117188 109.804688 C 58.265625 109.804688 58.960938 108.667969 58.960938 107.484375 C 58.960938 107.292969 58.925781 107.09375 58.882813 106.9375 L 58.902344 106.914063 C 59.214844 107.050781 59.371094 107.09375 59.660156 107.09375 C 60.230469 107.09375 60.519531 106.9375 60.8125 106.734375 L 60.867188 106.734375 L 56.882813 113.464844 L 57.417969 113.464844 L 61.9375 105.800781" />
    </g>
  </g>
  <g clip-path="url(#svg902120986741tikz_00001af)">
    <g clip-path="url(#svg902120986741tikz_00001ag)">
      <path d="M 111.664063 111.667969 L -100.332031 180.53125 L 42.78125 323.65625" fill="#ffe8b0" />
    </g>
  </g>
  <g clip-path="url(#svg902120986741tikz_00001ah)">
    <g clip-path="url(#svg902120986741tikz_00001ai)">
      <path d="M 1116.640625 1116.620313 L -1003.320313 427.9875 L 427.8125 -1003.2625 Z M 1116.640625 1116.620313" transform="matrix(.1 0 0 -.1 0 223.33)" fill="none" stroke-width="11.955" stroke="#fff" stroke-miterlimit="10" />
    </g>
  </g>
  <g clip-path="url(#svg902120986741tikz_00001aj)">
    <g clip-path="url(#svg902120986741tikz_00001ak)">
      <path d="M 56.4375 134.898438 L 56.4375 135.234375 C 57.148438 135.234375 57.382813 135.359375 57.382813 136.015625 L 57.382813 140.8125 C 57.382813 141.75 57.261719 141.894531 56.390625 141.894531 L 56.390625 142.230469 L 59.539063 142.230469 L 59.539063 141.894531 C 58.632813 141.894531 58.410156 141.773438 58.410156 140.859375 L 58.410156 138.949219 C 58.53125 139.007813 58.824219 139.039063 59.046875 139.039063 C 60.507813 139.039063 61.96875 138.492188 61.96875 136.75 C 61.96875 135.269531 60.640625 134.898438 59.214844 134.898438 Z M 58.410156 135.378906 C 58.644531 135.359375 58.855469 135.335938 59.078125 135.335938 C 60.285156 135.335938 60.863281 135.90625 60.863281 136.90625 C 60.863281 138.203125 60.21875 138.582031 59.011719 138.582031 C 58.789063 138.582031 58.53125 138.558594 58.410156 138.539063 L 58.410156 135.378906" />
    </g>
  </g>
  <g clip-path="url(#svg902120986741tikz_00001al)">
    <g clip-path="url(#svg902120986741tikz_00001am)">
      <path d="M 65.4375 141.539063 C 65.503906 142.027344 65.613281 142.285156 66.105469 142.285156 C 66.675781 142.285156 66.941406 142.050781 67.3125 141.515625 L 67.144531 141.335938 C 66.988281 141.503906 66.832031 141.617188 66.617188 141.617188 C 66.382813 141.617188 66.285156 141.527344 66.285156 141.070313 L 66.285156 138.539063 C 66.285156 137.375 65.828125 136.820313 64.609375 136.820313 C 63.394531 136.820313 62.648438 137.421875 62.648438 138.046875 C 62.648438 138.414063 62.890625 138.582031 63.117188 138.582031 C 63.429688 138.582031 63.605469 138.414063 63.605469 138.070313 C 63.605469 137.398438 63.71875 137.164063 64.355469 137.164063 C 65.023438 137.164063 65.359375 137.53125 65.359375 138.503906 L 65.359375 138.992188 C 64.398438 139.296875 62.421875 139.585938 62.421875 141.058594 C 62.421875 141.773438 62.890625 142.308594 63.75 142.308594 C 64.464844 142.308594 64.867188 141.996094 65.390625 141.539063 Z M 65.359375 141.203125 C 64.976563 141.515625 64.578125 141.695313 64.210938 141.695313 C 63.730469 141.695313 63.40625 141.347656 63.40625 140.789063 C 63.40625 139.921875 64.34375 139.617188 65.359375 139.363281 L 65.359375 141.203125" />
    </g>
  </g>
  <g clip-path="url(#svg902120986741tikz_00001an)">
    <g clip-path="url(#svg902120986741tikz_00001ao)">
      <path d="M 67.835938 140.398438 L 67.867188 142.320313 L 68.101563 142.320313 L 68.335938 142.0625 L 68.359375 142.0625 C 68.648438 142.183594 68.984375 142.351563 69.632813 142.351563 C 70.636719 142.351563 71.507813 141.949219 71.507813 140.902344 C 71.507813 140.078125 70.960938 139.664063 69.945313 139.128906 C 69.007813 138.648438 68.640625 138.371094 68.640625 137.933594 C 68.640625 137.433594 69.027344 137.199219 69.542969 137.199219 C 70.222656 137.199219 70.636719 137.523438 70.882813 138.582031 L 71.179688 138.582031 L 71.148438 136.875 L 70.925781 136.875 L 70.734375 137.109375 L 70.726563 137.109375 C 70.445313 136.976563 70.109375 136.820313 69.554688 136.820313 C 68.59375 136.820313 67.847656 137.308594 67.847656 138.226563 C 67.847656 139.050781 68.304688 139.441406 69.320313 139.953125 C 70.355469 140.46875 70.570313 140.679688 70.570313 141.203125 C 70.570313 141.726563 70.167969 141.9375 69.609375 141.9375 C 68.78125 141.9375 68.359375 141.546875 68.125 140.398438 L 67.835938 140.398438" />
    </g>
  </g>
  <g clip-path="url(#svg902120986741tikz_00001ap)">
    <g clip-path="url(#svg902120986741tikz_00001aq)">
      <path d="M 72.234375 140.398438 L 72.269531 142.320313 L 72.503906 142.320313 L 72.738281 142.0625 L 72.757813 142.0625 C 73.050781 142.183594 73.382813 142.351563 74.03125 142.351563 C 75.035156 142.351563 75.90625 141.949219 75.90625 140.902344 C 75.90625 140.078125 75.359375 139.664063 74.34375 139.128906 C 73.40625 138.648438 73.039063 138.371094 73.039063 137.933594 C 73.039063 137.433594 73.429688 137.199219 73.941406 137.199219 C 74.621094 137.199219 75.035156 137.523438 75.28125 138.582031 L 75.582031 138.582031 L 75.546875 136.875 L 75.324219 136.875 L 75.136719 137.109375 L 75.125 137.109375 C 74.84375 136.976563 74.511719 136.820313 73.953125 136.820313 C 72.992188 136.820313 72.246094 137.308594 72.246094 138.226563 C 72.246094 139.050781 72.703125 139.441406 73.71875 139.953125 C 74.757813 140.46875 74.96875 140.679688 74.96875 141.203125 C 74.96875 141.726563 74.566406 141.9375 74.007813 141.9375 C 73.183594 141.9375 72.757813 141.546875 72.523438 140.398438 L 72.234375 140.398438" />
    </g>
  </g>
  <g clip-path="url(#svg902120986741tikz_00001ar)">
    <g clip-path="url(#svg902120986741tikz_00001as)">
      <path d="M 76.800781 139.796875 L 79.3125 139.796875 L 79.3125 139.070313 L 76.800781 139.070313 Z M 76.800781 139.796875" />
    </g>
  </g>
  <g clip-path="url(#svg902120986741tikz_00001at)">
    <g clip-path="url(#svg902120986741tikz_00001au)">
      <path d="M 61.535156 158.335938 C 61.601563 158.828125 61.714844 159.085938 62.207031 159.085938 C 62.773438 159.085938 63.042969 158.851563 63.410156 158.316406 L 63.242188 158.136719 C 63.085938 158.304688 62.929688 158.414063 62.71875 158.414063 C 62.484375 158.414063 62.382813 158.328125 62.382813 157.867188 L 62.382813 155.335938 C 62.382813 154.175781 61.925781 153.617188 60.710938 153.617188 C 59.496094 153.617188 58.746094 154.222656 58.746094 154.84375 C 58.746094 155.214844 58.992188 155.382813 59.214844 155.382813 C 59.527344 155.382813 59.707031 155.214844 59.707031 154.867188 C 59.707031 154.199219 59.820313 153.964844 60.453125 153.964844 C 61.125 153.964844 61.457031 154.332031 61.457031 155.304688 L 61.457031 155.792969 C 60.5 156.09375 58.523438 156.386719 58.523438 157.859375 C 58.523438 158.570313 58.992188 159.109375 59.851563 159.109375 C 60.566406 159.109375 60.96875 158.796875 61.492188 158.335938 Z M 61.457031 158.003906 C 61.078125 158.316406 60.675781 158.492188 60.308594 158.492188 C 59.828125 158.492188 59.507813 158.148438 59.507813 157.589844 C 59.507813 156.71875 60.441406 156.417969 61.457031 156.164063 L 61.457031 158.003906" />
    </g>
  </g>
  <g clip-path="url(#svg902120986741tikz_00001av)">
    <g clip-path="url(#svg902120986741tikz_00001aw)">
      <path d="M 65.320313 151.152344 L 65.027344 151.152344 L 63.589844 151.542969 L 63.589844 151.855469 C 63.589844 151.855469 63.722656 151.835938 63.902344 151.835938 C 64.324219 151.835938 64.390625 151.921875 64.390625 152.425781 L 64.390625 158.695313 C 64.660156 158.839844 65.308594 159.140625 66.257813 159.140625 C 67.804688 159.140625 68.933594 158.09375 68.933594 156.09375 C 68.933594 154.644531 68.175781 153.617188 67.070313 153.617188 C 66.320313 153.617188 65.742188 154.097656 65.351563 154.566406 L 65.320313 154.566406 Z M 65.320313 155.058594 C 65.519531 154.789063 66.011719 154.378906 66.578125 154.378906 C 67.640625 154.378906 67.917969 155.382813 67.917969 156.453125 C 67.917969 157.691406 67.515625 158.683594 66.457031 158.683594 C 65.867188 158.683594 65.53125 158.414063 65.320313 158.160156 L 65.320313 155.058594" />
    </g>
  </g>
  <g clip-path="url(#svg902120986741tikz_00001ax)">
    <g clip-path="url(#svg902120986741tikz_00001ay)">
      <path d="M 72.199219 158.707031 C 71.398438 158.707031 71.34375 158.550781 71.34375 157.902344 L 71.34375 151.152344 L 71.0625 151.152344 L 69.589844 151.542969 L 69.589844 151.84375 C 69.589844 151.84375 69.757813 151.824219 69.945313 151.824219 C 70.226563 151.824219 70.414063 151.84375 70.414063 152.304688 L 70.414063 157.902344 C 70.414063 158.527344 70.371094 158.707031 69.632813 158.707031 L 69.632813 159.03125 L 72.199219 159.03125 L 72.199219 158.707031" />
    </g>
  </g>
  <g clip-path="url(#svg902120986741tikz_00001az)">
    <g clip-path="url(#svg902120986741tikz_00001aA)">
      <path d="M 77.128906 157.433594 C 76.773438 157.902344 76.425781 158.304688 75.523438 158.304688 C 74.632813 158.304688 73.78125 157.601563 73.78125 156.0625 L 77.308594 156.0625 C 77.253906 154.5 76.449219 153.617188 75.234375 153.617188 C 73.929688 153.617188 72.878906 154.511719 72.878906 156.375 C 72.878906 158.171875 73.917969 159.140625 75.257813 159.140625 C 76.40625 159.140625 76.941406 158.4375 77.34375 157.589844 Z M 73.773438 155.648438 C 73.859375 154.613281 74.308594 154.066406 75.066406 154.066406 C 75.859375 154.066406 76.226563 154.824219 76.257813 155.648438 L 73.773438 155.648438" />
    </g>
  </g>
  <g clip-path="url(#svg902120986741tikz_00001aB)">
    <g clip-path="url(#svg902120986741tikz_00001aC)">
      <path d="M 62.253906 175.828125 L 62.253906 175.515625 C 61.226563 175.515625 60.8125 175.316406 60.8125 174.769531 L 60.8125 168.703125 L 60.492188 168.703125 L 58.324219 169.3125 L 58.324219 169.683594 C 58.671875 169.570313 59.242188 169.503906 59.464844 169.503906 C 59.742188 169.503906 59.832031 169.660156 59.832031 170.050781 L 59.832031 174.769531 C 59.832031 175.328125 59.441406 175.515625 58.390625 175.515625 L 58.390625 175.828125 L 62.253906 175.828125" />
    </g>
  </g>
  <g clip-path="url(#svg902120986741tikz_00001aD)">
    <g clip-path="url(#svg902120986741tikz_00001aE)">
      <path d="M 67.75 169.703125 L 67.929688 168.800781 L 64.875 168.800781 L 64.183594 171.710938 L 64.316406 171.878906 C 64.472656 171.878906 64.527344 171.878906 64.820313 171.902344 C 66.359375 171.980469 67.226563 172.4375 67.226563 173.832031 C 67.226563 174.992188 66.523438 175.417969 65.734375 175.417969 C 65.019531 175.417969 64.648438 174.871094 64.203125 174.871094 C 63.925781 174.871094 63.757813 175.09375 63.757813 175.351563 C 63.757813 175.761719 64.183594 175.976563 65.039063 175.976563 C 66.816406 175.976563 68.042969 175.105469 68.042969 173.386719 C 68.042969 171.632813 66.671875 171.109375 65.351563 171.011719 L 64.828125 170.976563 L 65.128906 169.703125 L 67.75 169.703125" />
    </g>
  </g>
  <g clip-path="url(#svg902120986741tikz_00001aF)">
    <g clip-path="url(#svg902120986741tikz_00001aG)">
      <path d="M 73.679688 170.015625 C 73.679688 171.109375 73.109375 172.035156 72.363281 172.035156 C 72.007813 172.035156 71.773438 171.800781 71.773438 171.023438 C 71.773438 170.164063 72.007813 169.023438 72.988281 169.023438 C 73.367188 169.023438 73.679688 169.359375 73.679688 170.015625 Z M 77.71875 173.699219 C 77.71875 172.816406 77.25 172.371094 76.601563 172.371094 C 75.34375 172.371094 74.660156 173.453125 74.660156 174.679688 C 74.660156 175.550781 75.117188 176.054688 75.890625 176.054688 C 76.890625 176.054688 77.71875 175.117188 77.71875 173.699219 Z M 77.339844 173.6875 C 77.339844 174.792969 76.757813 175.683594 75.988281 175.683594 C 75.65625 175.683594 75.429688 175.417969 75.429688 174.757813 C 75.429688 173.753906 75.675781 172.671875 76.636719 172.671875 C 77.015625 172.671875 77.339844 173.007813 77.339844 173.6875 Z M 77.039063 168.398438 L 76.535156 168.398438 C 75.609375 169.335938 75.320313 169.390625 74.804688 169.390625 C 73.914063 169.390625 73.722656 168.722656 72.910156 168.722656 C 71.828125 168.722656 71 169.683594 71 171.011719 C 71 171.867188 71.4375 172.40625 72.21875 172.40625 C 73.367188 172.40625 74.058594 171.265625 74.058594 170.085938 C 74.058594 169.894531 74.023438 169.695313 73.980469 169.539063 L 74.003906 169.515625 C 74.316406 169.648438 74.472656 169.695313 74.761719 169.695313 C 75.332031 169.695313 75.621094 169.539063 75.910156 169.335938 L 75.96875 169.335938 L 71.984375 176.0625 L 72.519531 176.0625 L 77.039063 168.398438" />
    </g>
  </g>
  <g clip-path="url(#svg902120986741tikz_00001aH)">
    <g clip-path="url(#svg902120986741tikz_00001aI)">
      <path d="M 134.464844 143.226563 C 135.390625 142.980469 136.046875 142.53125 136.046875 141.539063 C 136.046875 140.4375 135.300781 139.800781 133.3125 139.800781 L 130.300781 139.800781 L 130.300781 140.132813 C 131.203125 140.132813 131.382813 140.257813 131.382813 141.148438 L 131.382813 145.710938 C 131.382813 146.640625 131.203125 146.796875 130.300781 146.796875 L 130.300781 147.128906 L 133.738281 147.128906 C 135.398438 147.128906 136.40625 146.425781 136.40625 145.15625 C 136.40625 143.9375 135.410156 143.425781 134.464844 143.269531 Z M 132.410156 143.089844 L 132.410156 140.269531 C 132.632813 140.246094 132.867188 140.234375 133.078125 140.234375 C 134.441406 140.234375 134.941406 140.757813 134.941406 141.628906 C 134.941406 142.644531 134.519531 143.089844 133.167969 143.089844 Z M 132.410156 143.558594 L 133.191406 143.558594 C 134.226563 143.558594 135.234375 143.90625 135.234375 145.175781 C 135.234375 146.59375 134.171875 146.71875 133.214844 146.71875 C 132.945313 146.71875 132.679688 146.707031 132.410156 146.683594 L 132.410156 143.558594" />
    </g>
  </g>
  <g clip-path="url(#svg902120986741tikz_00001aJ)">
    <g clip-path="url(#svg902120986741tikz_00001aK)">
      <path d="M 138.417969 139.398438 C 138.027344 139.398438 137.78125 139.6875 137.78125 140.023438 C 137.78125 140.367188 138.039063 140.660156 138.417969 140.660156 C 138.808594 140.660156 139.054688 140.367188 139.054688 140.023438 C 139.054688 139.6875 138.808594 139.398438 138.417969 139.398438 Z M 139.667969 146.816406 C 138.921875 146.816406 138.863281 146.648438 138.863281 146.003906 L 138.863281 141.75 L 138.574219 141.75 L 137.167969 142.0625 L 137.167969 142.386719 C 137.167969 142.386719 137.289063 142.367188 137.445313 142.367188 C 137.769531 142.367188 137.9375 142.410156 137.9375 142.890625 L 137.9375 146.003906 C 137.9375 146.640625 137.90625 146.816406 137.15625 146.816406 L 137.15625 147.128906 L 139.667969 147.128906 L 139.667969 146.816406" />
    </g>
  </g>
  <g clip-path="url(#svg902120986741tikz_00001aL)">
    <g clip-path="url(#svg902120986741tikz_00001aM)">
      <path d="M 144.628906 145.535156 C 144.273438 146.003906 143.925781 146.40625 143.023438 146.40625 C 142.132813 146.40625 141.28125 145.703125 141.28125 144.164063 L 144.808594 144.164063 C 144.753906 142.601563 143.949219 141.71875 142.734375 141.71875 C 141.429688 141.71875 140.378906 142.609375 140.378906 144.476563 C 140.378906 146.269531 141.417969 147.242188 142.757813 147.242188 C 143.90625 147.242188 144.441406 146.539063 144.84375 145.691406 Z M 141.273438 143.75 C 141.359375 142.710938 141.808594 142.164063 142.566406 142.164063 C 143.359375 142.164063 143.726563 142.921875 143.757813 143.75 L 141.273438 143.75" />
    </g>
  </g>
  <g clip-path="url(#svg902120986741tikz_00001aN)">
    <g clip-path="url(#svg902120986741tikz_00001aO)">
      <path d="M 150.566406 143.703125 C 150.566406 142.421875 150.085938 141.71875 149.070313 141.71875 C 148.367188 141.71875 147.878906 142.121094 147.273438 142.65625 L 147.230469 142.65625 L 147.242188 141.75 L 146.984375 141.75 L 145.570313 142.078125 L 145.570313 142.398438 C 145.570313 142.398438 145.679688 142.375 145.867188 142.375 C 146.171875 142.375 146.339844 142.464844 146.339844 142.867188 L 146.339844 146.003906 C 146.339844 146.628906 146.304688 146.816406 145.554688 146.816406 L 145.554688 147.128906 L 148.113281 147.128906 L 148.113281 146.816406 C 147.308594 146.816406 147.265625 146.628906 147.265625 146.003906 L 147.265625 143.136719 C 147.597656 142.835938 148.011719 142.433594 148.613281 142.433594 C 149.117188 142.433594 149.640625 142.644531 149.640625 143.984375 L 149.640625 146.003906 C 149.640625 146.628906 149.605469 146.816406 148.8125 146.816406 L 148.8125 147.128906 L 151.390625 147.128906 L 151.390625 146.816406 C 150.644531 146.816406 150.566406 146.628906 150.566406 146.003906 L 150.566406 143.703125" />
    </g>
  </g>
  <g clip-path="url(#svg902120986741tikz_00001aP)">
    <g clip-path="url(#svg902120986741tikz_00001aQ)">
      <path d="M 131.359375 158.375 C 131.738281 157.78125 132.152344 157.46875 132.820313 157.46875 C 133.511719 157.46875 133.960938 157.851563 133.960938 158.507813 C 133.960938 159.410156 133.167969 160.023438 132.40625 160.023438 L 132.195313 160.023438 L 132.195313 160.449219 L 132.417969 160.449219 C 133.492188 160.449219 134.4375 161.109375 134.4375 162.101563 C 134.4375 163.195313 133.757813 163.515625 133.054688 163.515625 C 132.789063 163.515625 132.632813 163.472656 132.152344 163.226563 C 131.761719 163.027344 131.671875 162.96875 131.492188 162.96875 C 131.203125 162.96875 131.058594 163.226563 131.058594 163.460938 C 131.058594 163.75 131.304688 164.074219 132.308594 164.074219 C 133.9375 164.074219 135.351563 163.292969 135.351563 161.765625 C 135.351563 160.773438 134.605469 160.179688 133.714844 159.902344 L 133.714844 159.867188 C 134.414063 159.421875 134.917969 159.007813 134.917969 158.242188 C 134.917969 157.390625 134.257813 156.746094 133.121094 156.746094 C 132.207031 156.746094 131.515625 157.257813 131.101563 158.226563 L 131.359375 158.375" />
    </g>
  </g>
  <g clip-path="url(#svg902120986741tikz_00001aR)">
    <g clip-path="url(#svg902120986741tikz_00001aS)">
      <path d="M 141.222656 160.394531 C 141.222656 158.09375 140.21875 156.765625 138.777344 156.765625 C 137.160156 156.765625 136.300781 158.242188 136.300781 160.359375 C 136.300781 162.335938 136.960938 164.054688 138.757813 164.054688 C 140.507813 164.054688 141.222656 162.300781 141.222656 160.394531 Z M 140.140625 160.460938 C 140.140625 162.601563 139.636719 163.648438 138.757813 163.648438 C 137.863281 163.648438 137.371094 162.578125 137.371094 160.414063 C 137.371094 158.207031 137.863281 157.148438 138.742188 157.148438 C 139.660156 157.148438 140.140625 158.195313 140.140625 160.460938" />
    </g>
  </g>
  <g clip-path="url(#svg902120986741tikz_00001aT)">
    <g clip-path="url(#svg902120986741tikz_00001aU)">
      <path d="M 146.578125 158.117188 C 146.578125 159.210938 146.011719 160.136719 145.261719 160.136719 C 144.90625 160.136719 144.671875 159.902344 144.671875 159.121094 C 144.671875 158.261719 144.90625 157.125 145.886719 157.125 C 146.265625 157.125 146.578125 157.460938 146.578125 158.117188 Z M 150.617188 161.796875 C 150.617188 160.917969 150.148438 160.472656 149.503906 160.472656 C 148.242188 160.472656 147.5625 161.554688 147.5625 162.78125 C 147.5625 163.648438 148.019531 164.152344 148.789063 164.152344 C 149.792969 164.152344 150.617188 163.214844 150.617188 161.796875 Z M 150.238281 161.789063 C 150.238281 162.890625 149.660156 163.785156 148.890625 163.785156 C 148.554688 163.785156 148.332031 163.515625 148.332031 162.859375 C 148.332031 161.855469 148.578125 160.773438 149.535156 160.773438 C 149.914063 160.773438 150.238281 161.109375 150.238281 161.789063 Z M 149.9375 156.5 L 149.4375 156.5 C 148.507813 157.4375 148.21875 157.492188 147.707031 157.492188 C 146.8125 157.492188 146.621094 156.824219 145.808594 156.824219 C 144.726563 156.824219 143.902344 157.78125 143.902344 159.109375 C 143.902344 159.96875 144.339844 160.503906 145.117188 160.503906 C 146.265625 160.503906 146.960938 159.367188 146.960938 158.183594 C 146.960938 157.992188 146.925781 157.792969 146.882813 157.636719 L 146.902344 157.617188 C 147.214844 157.75 147.371094 157.792969 147.660156 157.792969 C 148.230469 157.792969 148.519531 157.636719 148.8125 157.4375 L 148.867188 157.4375 L 144.882813 164.164063 L 145.417969 164.164063 L 149.9375 156.5" />
    </g>
  </g>
  <g clip-path="url(#svg902120986741tikz_00001aV)">
    <g clip-path="url(#svg902120986741tikz_00001aW)">
      <path d="M 2107.304688 1116.620313 C 2107.304688 1663.76875 1663.789063 2107.284375 1116.640625 2107.284375 C 569.492188 2107.284375 125.976563 1663.76875 125.976563 1116.620313 C 125.976563 569.510938 569.492188 125.95625 1116.640625 125.95625 C 1663.789063 125.95625 2107.304688 569.510938 2107.304688 1116.620313 Z M 2107.304688 1116.620313" transform="matrix(.1 0 0 -.1 0 223.33)" fill="none" stroke-width="11.955" stroke="#fff" stroke-miterlimit="10" />
    </g>
  </g>
  <g clip-path="url(#svg902120986741tikz_00001aX)">
    <g clip-path="url(#svg902120986741tikz_00001aY)">
      <path d="M 1125.351563 1116.620313 C 1125.351563 1121.425 1121.445313 1125.33125 1116.640625 1125.33125 C 1111.835938 1125.33125 1107.929688 1121.425 1107.929688 1116.620313 C 1107.929688 1111.815625 1111.835938 1107.948438 1116.640625 1107.948438 C 1121.445313 1107.948438 1125.351563 1111.815625 1125.351563 1116.620313 Z M 1125.351563 1116.620313" transform="matrix(.1 0 0 -.1 0 223.33)" fill="none" stroke-width="11.955" stroke="#fff" stroke-miterlimit="10" />
    </g>
  </g>
</svg>